# AST/ASF file generated using VICON BodyLanguage
# -----------------------------------------------
:version 1.10
:name VICON
:units
  mass 1.0
  length 0.45
  angle deg
:documentation
   .ast/.asf automatically generated from VICON data using
   VICON BodyBuilder and BodyLanguage model FoxedUp or BRILLIANT.MOD
:root
   order TX TY TZ RX RY RZ
   axis XYZ
   position 0 0 0  
   orientation 0 0 0 
:bonedata
  begin
     id 1 
     name lhipjoint
     direction 0.623529 -0.717805 0.309788 
     length 2.23224 
     axis 0 0 0  XYZ
  end
  begin
     id 2 
     name lfemur
     direction 0.34202 -0.939693 0  
     length 7.11402  
     axis 0 0 20  XYZ
    dof rx ry rz
    limits (-160.0 20.0)
           (-70.0 70.0)
           (-60.0 70.0)
  end
  begin
     id 3 
     name ltibia
     direction 0.34202 -0.939693 0   
     length 6.78496   
     axis 0 0 20   XYZ
    dof rx
    limits (-10.0 170.0)
  end
  begin
     id 4 
     name lfoot
     direction 0.125078 -0.343648 0.930732   
     length 1.84054   
     axis -90 7.62852e-016 20   XYZ
    dof rx rz
    limits (-45.0 90.0)
           (-70.0 20.0)
  end
  begin
     id 5 
     name ltoes
     direction 1.53565e-011 -4.21893e-011 1   
     length 0.916474   
     axis -90 7.62852e-016 20   XYZ
    dof rx
    limits (-90.0 20.0)
  end
  begin
     id 6 
     name rhipjoint
     direction -0.564688 -0.757748 0.327026   
     length 2.11457  
     axis 0 0 0  XYZ 
  end
  begin
     id 7 
     name rfemur
     direction -0.34202 -0.939693 0   
     length 7.14609   
     axis 0 0 -20   XYZ
    dof rx ry rz
    limits (-160.0 20.0)
           (-70.0 70.0)
           (-70.0 60.0)
  end
  begin
     id 8 
     name rtibia
     direction -0.34202 -0.939693 0   
     length 6.78101   
     axis 0 0 -20   XYZ
    dof rx
    limits (-10.0 170.0)
 end
 begin
     id 9 
     name rfoot
     direction -0.0992671 -0.272734 0.956955   
     length 1.96168  
     axis -90 -7.62852e-016 -20   XYZ
    dof rx rz
    limits (-45.0 90.0)
           (-20.0 70.0)
  end
  begin
     id 10 
     name rtoes
     direction -1.5356e-011 -4.21891e-011 1   
     length 0.982933   
     axis -90 -7.62852e-016 -20   XYZ
    dof rx
    limits (-90.0 20.0)
  end
  begin
     id 11 
     name lowerback
     direction -0.00596953 0.998668 0.0512524   
     length 1.87557   
     axis 0 0 0   XYZ
    dof rx ry rz
    limits (-20.0 45.0)
           (-30.0 30.0)
           (-30.0 30.0)
  end
  begin
     id 12 
     name upperback
     direction 0.00584879 0.999652 0.0257308   
     length 1.87883   
     axis 0 0 0   XYZ
    dof rx ry rz
    limits (-20.0 45.0)
           (-30.0 30.0)
           (-30.0 30.0)
  end
  begin
     id 13 
     name thorax
     direction 0.010104 0.999947 0.00178881   
     length 1.87779   
     axis 0 0 0   XYZ
    dof rx ry rz
    limits (-20.0 45.0)
           (-30.0 30.0)
           (-30.0 30.0)
  end
  begin
     id 14 
     name lowerneck
     direction 0.0120771 0.995934 -0.0892773   
     length 1.40897   
     axis 0 0 0   XYZ
    dof rx ry rz
    limits (-20.0 45.0)
           (-30.0 30.0)
           (-30.0 30.0)
  end
  begin
     id 15 
     name upperneck
     direction -0.030568 0.999465 -0.0116366   
     length 1.38661   
     axis 0 0 0   XYZ
    dof rx ry rz
    limits (-20.0 45.0)
           (-30.0 30.0)
           (-30.0 30.0)
  end
  begin
     id 16
     name head
     direction -0.0170715 0.999854 -0.00104426  
     length 1.47052  
     axis 0 0 0   XYZ
    dof rx ry rz
    limits (-20.0 45.0)
           (-30.0 30.0)
           (-30.0 30.0)
  end
  begin
     id 17 
     name lclavicle
     direction 0.977763 0.206143 0.038532  
     length 3.02424  
     axis 0 0 0   XYZ
    dof ry rz
    limits (-20.0 10.0)
           (0.0 20.0)
  end
  begin
     id 18 
     name lhumerus
     direction 1 -4.48965e-011 -2.62654e-027   
     length 4.68382   
     axis 180 -30 -90   XYZ
    dof rx ry rz
    limits (-60.0 90.0)
           (-90.0 90.0)
           (-90.0 90.0)
  end
  begin
     id 19
     name lradius
     direction 1 -4.48973e-011 -1.54954e-027   
     length 2.98124   
     axis 180 -30 -90   XYZ
    dof rx
    limits (-10.0 170.0)
  end
  begin
     id 20
     name lwrist
     direction 1 -4.48959e-011 7.20928e-028   
     length 1.49062   
     axis -5.52449e-016 90 90   XYZ
    dof ry
    limits (-180.0 0.0)
 end
  begin
     id 21 
     name lhand
     direction 1 -4.48971e-011 1.44186e-027   
     length 0.707595   
     axis -9.20027e-016 90 90   XYZ
    dof rx rz
    limits (-90.0 90.0)
           (-45.0 45.0)
  end
  begin
     id 22 
     name lfingers
     direction 1 -4.48985e-011 2.88371e-027   
     length 0.570481   
     axis -1.84005e-015 90 90   XYZ
    dof rx
    limits (0.0 90.0)
  end
  begin
     id 23
     name lthumb
     direction 0.707107 -6.34929e-011 0.707107   
     length 0.819101   
     axis -90 45 2.85299e-015   XYZ
    dof rx rz
    limits (-45.0 45.0)
           (-45.0 45.0)
  end
  begin
     id 24 
     name rclavicle
     direction -0.958661 0.284411 -0.00895327   
     length 3.11921  
     axis 0 0 0   XYZ 
    dof ry rz
    limits (-10.0 20.0)
           (-20.0 0.0)
  end
  begin
     id 25 
     name rhumerus
     direction -1 -4.48963e-011 -4.22193e-027  
     length 4.75876   
     axis 180 30 90   XYZ
    dof rx ry rz
    limits (-90.0 60.0)
           (-90.0 90.0)
           (-90.0 90.0)
  end
  begin
     id 26 
     name rradius
     direction -1 -4.48968e-011 -1.07616e-027   
     length 2.93293   
     axis 180 30 90   XYZ
    dof rx
    limits (-10.0 170.0)
  end
  begin
     id 27 
     name rwrist
     direction -1 -4.48965e-011 7.20928e-028   
     length 1.46647   
     axis -5.52449e-016 -90 -90   XYZ
    dof ry
    limits (-180.0 0.0)
  end
  begin
     id 28
     name rhand
     direction -1 -4.48971e-011 1.44186e-027   
     length 0.831748   
     axis -9.20027e-016 -90 -90   XYZ
    dof rx rz
    limits (-90.0 90.0)
           (-45.0 45.0)
  end
  begin
     id 29
     name rfingers
     direction -1 -4.48961e-011 2.88371e-027   
     length 0.670577   
     axis -1.84005e-015 -90 -90   XYZ
    dof rx
    limits (0.0 90.0)
  end
  begin
     id 30
     name rthumb
     direction -0.707107 -6.34929e-011 0.707107   
     length 0.962818   
     axis -90 -45 -2.85299e-015   XYZ
    dof rx rz
    limits (-45.0 45.0)
           (-45.0 45.0)
  end
:hierarchy
  begin
    root lhipjoint rhipjoint lowerback
    lhipjoint lfemur
    lfemur ltibia
    ltibia lfoot
    lfoot ltoes
    rhipjoint rfemur
    rfemur rtibia
    rtibia rfoot
    rfoot rtoes
    lowerback upperback
    upperback thorax
    thorax lowerneck lclavicle rclavicle
    lowerneck upperneck
    upperneck head
    lclavicle lhumerus
    lhumerus lradius
    lradius lwrist
    lwrist lhand lthumb
    lhand lfingers
    rclavicle rhumerus
    rhumerus rradius
    rradius rwrist
    rwrist rhand rthumb
    rhand rfingers
  end

#!OML:ASF E:\id_vita\Project 1\Capture day 1\Session 1\Female.ASF
:FULLY-SPECIFIED
:DEGREES
430
root -10.9656 16.2333 0.0652445 360.662 95.3255 346.331
lowerback -11.6014 -1.75131 -5.78121
upperback -5.65239 -1.5089 1.73063
thorax 0.77282 -0.524499 4.88662
lowerneck 6.97076 -0.986068 -6.35844
upperneck -1.24153 -1.40835 11.3848
head -1.38452 -0.887127 4.51456
rclavicle 1.70334e-014 -2.54444e-014
rhumerus -45.7442 -32.4234 -60.7473
rradius 15.632
rwrist 35.7107
rhand -12.5663 10.7602
rfingers 7.12502
rthumb 13.5113 -18.7815
lclavicle 1.70334e-014 -2.54444e-014
lhumerus -63.3516 58.3537 37.8109
lradius 11.0924
lwrist -81.7688
lhand -6.8161 22.8371
lfingers 7.12502
lthumb 19.0477 51.9244
rfemur -37.7266 9.57564 16.2869
rtibia 14.6118
rfoot 0.832622 -7.6538
rtoes -6.06552
lfemur -2.58703 -10.6862 -24.5288
ltibia 20.3765
lfoot -22.4667 -4.81393
ltoes 3.38532
431
root -10.8281 16.2445 0.0825324 361.217 95.3437 346.743
lowerback -11.7403 -1.75728 -5.78655
upperback -5.7833 -1.50001 1.7291
thorax 0.709711 -0.510105 4.88847
lowerneck 6.97407 -0.92037 -6.45892
upperneck -1.2362 -1.32229 11.5412
head -1.3902 -0.846214 4.57719
rclavicle 1.27968e-015 3.97569e-015
rhumerus -46.6179 -33.1277 -59.6203
rradius 15.4088
rwrist 36.672
rhand -12.6059 11.6213
rfingers 7.12502
rthumb 13.4731 -17.9229
lclavicle 1.27968e-015 3.97569e-015
lhumerus -68.5986 59.0452 31.6883
lradius 10.9417
lwrist -84.5505
lhand -6.85476 23.0199
lfingers 7.12502
lthumb 19.0105 52.1109
rfemur -37.8992 9.7657 16.425
rtibia 15.2815
rfoot 1.23862 -7.31928
rtoes -6.90863
lfemur -2.37488 -10.6688 -24.3649
ltibia 20.6106
lfoot -21.843 -5.44098
ltoes 3.17262
432
root -10.6967 16.2585 0.0981222 362.988 95.5122 348.19
lowerback -11.9868 -1.78304 -5.68465
upperback -5.93753 -1.5195 1.75933
thorax 0.68278 -0.5104 4.8579
lowerneck 6.85753 -0.909834 -6.54887
upperneck -1.17934 -1.31338 11.6094
head -1.35435 -0.838208 4.61133
rclavicle -1.63997e-015 6.55989e-015
rhumerus -47.3661 -33.8604 -58.6136
rradius 15.3408
rwrist 37.4239
rhand -12.7193 12.0006
rfingers 7.12502
rthumb 13.3638 -17.5508
lclavicle -1.63997e-015 6.55989e-015
lhumerus -75.6569 59.7996 23.4697
lradius 10.7084
lwrist -88.9262
lhand -7.32836 22.9566
lfingers 7.12502
lthumb 18.555 52.0916
rfemur -38.3317 9.83296 16.6043
rtibia 16.0866
rfoot 1.70075 -7.13716
rtoes -6.79402
lfemur -2.41838 -10.615 -24.0314
ltibia 20.7909
lfoot -21.1826 -6.05993
ltoes 1.72556
433
root -10.5449 16.2738 0.111023 365.108 95.3949 350.482
lowerback -12.0702 -1.7371 -5.39493
upperback -5.88188 -1.48656 1.78433
thorax 0.778143 -0.504272 4.72213
lowerneck 6.6145 -0.886183 -6.70501
upperneck -0.972373 -1.29693 11.7291
head -1.2539 -0.820497 4.66989
rclavicle -9.19379e-016 1.0138e-014
rhumerus -48.0527 -34.8314 -57.5008
rradius 15.0781
rwrist 38.7468
rhand -12.9064 12.2038
rfingers 7.12502
rthumb 13.1835 -17.3594
lclavicle -9.19379e-016 1.0138e-014
lhumerus -83.087 60.0704 14.7885
lradius 10.5488
lwrist -93.2366
lhand -7.79663 23.2826
lfingers 7.12502
lthumb 18.1045 52.46
rfemur -38.1576 10.0847 17.0511
rtibia 16.9324
rfoot 1.7946 -6.91748
rtoes -6.14497
lfemur -1.94673 -10.4363 -23.7477
ltibia 21.1267
lfoot -20.512 -6.61825
ltoes 1.44177
434
root -10.4041 16.2852 0.122102 367.391 95.1148 352.797
lowerback -12.1681 -1.65211 -5.08267
upperback -5.90133 -1.40052 1.80827
thorax 0.796067 -0.465587 4.57999
lowerneck 6.5769 -0.854254 -6.79995
upperneck -0.933443 -1.2611 11.7999
head -1.23889 -0.801725 4.70609
rclavicle -5.10628e-015 -1.82882e-014
rhumerus -48.5203 -35.4324 -56.7921
rradius 14.8901
rwrist 39.6779
rhand -12.7528 11.7518
rfingers 7.12502
rthumb 13.3315 -17.8017
lclavicle -5.10628e-015 -1.82882e-014
lhumerus -87.2991 59.657 9.81593
lradius 10.5599
lwrist -95.0716
lhand -7.51865 23.8399
lfingers 7.12502
lthumb 18.3719 52.9923
rfemur -38.0938 10.21 17.587
rtibia 17.7653
rfoot 1.66259 -6.4895
rtoes -6.22606
lfemur -1.75073 -10.1467 -23.4755
ltibia 21.6079
lfoot -19.7588 -7.16323
ltoes 1.79537
435
root -10.2596 16.2942 0.135837 368.946 94.9396 354.255
lowerback -12.4776 -1.60351 -4.96835
upperback -5.93125 -1.32734 1.82278
thorax 0.92185 -0.430733 4.53689
lowerneck 6.65766 -0.883084 -6.74552
upperneck -1.04333 -1.29272 11.7421
head -1.28182 -0.821349 4.68154
rclavicle 3.2551e-015 -2.26615e-014
rhumerus -49.6802 -37.4374 -54.4942
rradius 14.239
rwrist 42.2789
rhand -12.6612 11.6179
rfingers 7.12502
rthumb 13.4198 -17.9298
lclavicle 3.2551e-015 -2.26615e-014
lhumerus -90.5791 58.9978 5.87476
lradius 10.6447
lwrist -96.4294
lhand -7.14043 23.8394
lfingers 7.12502
lthumb 18.7358 52.9572
rfemur -37.9944 10.1875 18.0483
rtibia 18.4764
rfoot 1.59604 -6.216
rtoes -6.24096
lfemur -1.71681 -9.78223 -23.2349
ltibia 22.2085
lfoot -18.9981 -7.83664
ltoes 1.23716
436
root -10.1152 16.303 0.149591 370.149 94.8081 355.363
lowerback -12.7921 -1.59143 -4.88419
upperback -5.95567 -1.29964 1.82199
thorax 1.06133 -0.41886 4.48902
lowerneck 6.66024 -0.898917 -6.65048
upperneck -1.05799 -1.30798 11.6625
head -1.28601 -0.828364 4.6416
rclavicle -7.24322e-015 1.49089e-014
rhumerus -52.2604 -40.9158 -49.9764
rradius 13.3322
rwrist 47.2442
rhand -13.0576 12.6184
rfingers 7.12502
rthumb 13.0377 -16.9542
lclavicle -7.24322e-015 1.49089e-014
lhumerus -94.9971 58.1965 0.52907
lradius 10.7471
lwrist -98.7746
lhand -7.1871 23.5397
lfingers 7.12502
lthumb 18.6909 52.6617
rfemur -37.8238 10.1408 18.4499
rtibia 19.0211
rfoot 1.4256 -6.05631
rtoes -5.07337
lfemur -1.86632 -9.29823 -22.9978
ltibia 23.0818
lfoot -18.2565 -8.77093
ltoes 0.670595
437
root -9.9749 16.313 0.164651 371.888 94.6889 357.009
lowerback -12.9758 -1.58945 -4.66457
upperback -6.03555 -1.30644 1.80247
thorax 1.07362 -0.421446 4.34121
lowerneck 6.59374 -0.823049 -6.68357
upperneck -0.911768 -1.2135 11.7381
head -1.24085 -0.777251 4.66632
rclavicle -1.96176e-014 -1.63003e-014
rhumerus -53.0085 -41.3136 -49.2289
rradius 13.3382
rwrist 48.0776
rhand -13.2287 13.2786
rfingers 7.12502
rthumb 12.8728 -16.3044
lclavicle -1.96176e-014 -1.63003e-014
lhumerus -98.9686 57.2084 -4.44417
lradius 10.7539
lwrist -101.023
lhand -7.35393 23.5701
lfingers 7.12502
lthumb 18.5304 52.7075
rfemur -37.6843 10.1265 18.8689
rtibia 19.5078
rfoot 1.06792 -5.80487
rtoes -4.51306
lfemur -2.13418 -8.65051 -22.6766
ltibia 24.1219
lfoot -17.3519 -9.84019
ltoes 0.917764
438
root -9.83868 16.3197 0.178212 373.113 94.5767 358.085
lowerback -13.1098 -1.55089 -4.39564
upperback -6.19479 -1.26785 1.70739
thorax 0.968736 -0.396761 4.0933
lowerneck 6.62303 -0.780606 -6.7392
upperneck -0.807515 -1.16431 11.8614
head -1.21927 -0.752672 4.71205
rclavicle 1.03368e-014 1.0138e-014
rhumerus -51.6395 -39.1065 -52.2577
rradius 13.9263
rwrist 44.728
rhand -12.9245 12.4105
rfingers 7.12502
rthumb 13.166 -17.1538
lclavicle 1.03368e-014 1.0138e-014
lhumerus -103.728 55.8524 -10.5899
lradius 10.7184
lwrist -104.607
lhand -7.61585 23.4998
lfingers 7.12502
lthumb 18.2784 52.661
rfemur -37.5242 9.93182 19.2873
rtibia 19.9177
rfoot 0.667549 -5.37754
rtoes -5.12616
lfemur -2.46812 -8.0218 -22.4035
ltibia 25.1622
lfoot -16.154 -10.8207
ltoes 1.39094
